<svg xmlns="http://www.w3.org/2000/svg" width="117" height="50" viewBox="0 0 117 50">
    <defs>
        <linearGradient id="yingb4uppa" x1="0%" x2="100%" y1="40.974%" y2="59.026%">
            <stop offset="0%" stop-color="#FFD373"/>
            <stop offset="71.094%" stop-color="#D6AB4D"/>
            <stop offset="100%" stop-color="#F6D58F"/>
        </linearGradient>
    </defs>
    <g fill="none" fill-rule="evenodd">
        <g fill="url(#yingb4uppa)" transform="translate(-842 -6662)">
            <g>
                <g>
                    <path d="M27.916 26.204c6.298 0 11.404 5.188 11.413 11.593 0 6.41-5.368 11.6-11.394 11.608-6.285 0-11.35-5.184-11.357-11.592.04-5.612 4.568-11.604 11.338-11.61zm13.135 11.693c-.005-6.465 5.28-12.453 13.476-11.618.368.068 1.411.085 4.349.816l-.458 2.416s-.217-.03-.518-.148c-1.207-4.015-13.548-4.159-13.548 7.664.01 4.565 2.38 8.411 5.602 9.579.322.122 4.983 2.212 9.923-2.809l.305.308c-2.253 3.346-5.654 5.293-8.35 5.293-5.655.008-10.781-5.03-10.781-11.501zm54.008-11.296c1.224.04 2.403.055 3.493.056l.714-.001c1.866-.007 3.426-.047 4.448-.05h.357c.221.001.407.006.553.014 1.311.035 4.526.437 4.481 4.18-.064 4.525-5.21 6.417-5.314 6.344.55.863 6.703 7.419 8.817 9.408 1.984 1.868 2.712 2.087 3.673 2.193v.359c-5.75 1.298-8.695-3.284-9.65-4.505-1.009-1.292-2.813-3.81-4.366-5.496-1.34-1.46-2.661-1.206-3.272-1.255l.005.62c.03 4.25.085 8.611.147 9.152.008.174.083.927.96.927v.486c-2.293-.06-3.423-.068-5.046 0v-.484c.877 0 .952-.754.958-.93.091-1.107.136-4.819.138-8.632.001-1.18-.002-2.384-.01-3.546-.015-3.182-.061-6.09-.128-7.436 0-.103-.027-.957-.958-.957zM0 26.601c1.224.04 2.402.055 3.493.056l.713-.001c1.866-.007 3.427-.047 4.449-.05h.357c.221.001.407.006.553.014 1.31.035 4.526.437 4.48 4.18-.063 4.525-5.209 6.417-5.314 6.344.551.863 6.703 7.419 8.817 9.408 1.985 1.868 2.712 2.087 3.673 2.193v.359c-5.75 1.298-8.695-3.284-9.65-4.505-1.009-1.292-2.813-3.81-4.365-5.496-1.34-1.46-2.662-1.206-3.272-1.255.03 4.436.087 9.205.152 9.772.008.174.083.927.96.927v.486c-2.293-.06-3.424-.068-5.046 0v-.484c.877 0 .951-.754.958-.93.09-1.107.136-4.819.138-8.632 0-1.18-.002-2.384-.01-3.546-.016-3.182-.061-6.09-.128-7.436 0-.103-.028-.957-.958-.957zm92.659-.004l-.418 2.42s-.119-.014-.445-.069l-.102-.095c.14-1.551-3.484-1.372-5.037-1.452-2.186-.108-2.237 1.232-2.267 1.97-.07.975-.099 5.728-.117 6.435 1.755.329 6.048.36 6.984.233l-.085.363c-1.227.728-4.42 1.112-6.878 1.226-.07.9-.008 7.79.12 8.9.36 1.52 1.418 1.485 2.27 1.468h.004l.25-.004c2.398-.017 6.352-.003 7.393-2.327l.323.117c-.61 2.223-.628 3.181-2.616 3.235-1.411-.071-6.09-.103-7.232-.111-1.13.005-2.03.03-2.897.063l-.74.03-.753.033v-.459c.885 0 .961-.764.967-.939.2-2.407.172-16.153 0-19.62 0-.104-.026-.967-.967-.967v-.45c1.4.045 3.105.062 4.792.064h.594c3.553-.002 6.857-.064 6.857-.064zm-14.492.004v.45c-.94 0-.966.862-.966.965-.078 1.548-.126 5.144-.138 8.864l-.002 1.342v.89c.003 3.842.047 7.403.14 8.52.006.178.082.94.966.94v.458c-.87-.038-1.705-.052-2.544-.049-.842-.003-1.676.011-2.546.05v-.46c.884 0 .961-.761.967-.939.09-1.08.133-4.449.138-8.145v-1.49l-.002-1.126c-1.13.407-4.713 1.544-8.882 1.28v1.139c.004 3.773.048 7.243.14 8.342.005.178.082.94.967.94v.458c-.872-.038-1.705-.052-2.546-.049-.84-.003-1.676.011-2.544.05v-.46c.883 0 .959-.761.965-.939.09-1.074.133-4.408.14-8.078v-1.78l-.003-.894c-.012-3.72-.06-7.316-.136-8.864 0-.103-.027-.965-.966-.965v-.45c.784.023 1.71.062 2.544.062.833 0 1.757-.039 2.546-.062v.45c-.942 0-.968.862-.968.965-.073 1.46-.12 4.749-.134 8.242 3.281.338 5.716.304 8.875.002-.015-3.494-.062-6.782-.134-8.244 0-.103-.027-.965-.967-.965v-.45c.785.023 1.71.062 2.546.062.835 0 1.758-.039 2.544-.062zM35.989 37.25c-.67-6.4-3.756-10.327-8.816-9.923-4.688.352-7.702 5.268-7.292 11.064.409 5.791 4.159 10.3 8.772 9.932 4.464-.321 7.801-4.367 7.336-11.073zm65.549-9.868l-.298.001c-.513.005-.972.055-1.266.188-.49.223-.775.726-.846 1.625-.048.62-.08 1.566-.1 2.559l-.01.5c-.02 1.252-.025 2.508-.026 3.23v.619c0 .133-.004.244-.007.34v.364c.04.198.223.176.898.236.714.064 1.645-.035 2.515-.12 2.008-.22 4.074-2.217 3.645-5.273-.424-3.021-1.993-4.08-3.312-4.212-.568-.056-.978-.06-1.49-.056zm-95.06 0l-.297.001c-.513.005-.973.055-1.266.188-.49.223-.775.726-.846 1.625-.053.672-.085 1.725-.105 2.808l-.008.5c-.014.918-.02 1.817-.022 2.488l-.001.342v.77c0 .133-.004.244-.007.34v.364c.04.198.222.176.898.236.714.064 1.645-.035 2.515-.12 2.007-.22 4.074-2.217 3.645-5.273-.424-3.021-1.993-4.08-3.312-4.212-.568-.056-.978-.06-1.491-.056zM103.818 0c6.297 0 11.404 5.189 11.413 11.593 0 6.41-5.369 11.6-11.394 11.608-6.286 0-11.35-5.184-11.358-11.592C92.52 5.997 97.047.005 103.818 0zM45.74.397c1.088.036 2.14.051 3.126.055h1.08c2.566-.01 4.554-.08 5.358-.036 1.312.035 4.527.437 4.482 4.18-.064 4.525-5.208 6.417-5.314 6.345.55.862 6.702 7.418 8.818 9.407 1.982 1.868 2.712 2.087 3.67 2.193v.359c-5.031 1.102-8.544-3.442-9.56-4.505-1.14-1.179-2.9-3.81-4.454-5.496-1.34-1.46-2.662-1.206-3.27-1.255 0 .121 0 .242.002.363l.005.727c.028 3.626.073 7.126.125 8.216-1.001-.614-2.298-1.874-3.009-2.84.077-4.937.03-13.656-.1-16.31 0-.101-.027-.956-.959-.956zm-16.3 0c1.087.036 2.139.051 3.125.055h1.08c2.566-.01 4.554-.08 5.359-.036 1.31.035 4.526.437 4.48 4.18-.063 4.525-5.208 6.417-5.314 6.345.47.737 5.028 5.627 7.664 8.277l.372.371c.297.295.56.552.781.759 1.984 1.868 2.713 2.087 3.673 2.193v.359c-5.032 1.102-8.545-3.442-9.562-4.505-1.14-1.179-2.9-3.81-4.453-5.496-1.34-1.46-2.662-1.206-3.272-1.255.03 4.436.087 9.205.152 9.772.008.174.083.928.96.928v.485c-2.293-.06-3.424-.068-5.046 0v-.483c.877 0 .951-.755.958-.93.091-1.108.136-4.82.138-8.632 0-1.18-.002-2.385-.01-3.547-.016-3.182-.061-6.09-.128-7.436 0-.102-.028-.957-.958-.957zm46.983 0c1.088.036 2.14.051 3.126.055h1.08c2.566-.01 4.554-.08 5.36-.036 1.31.035 4.525.437 4.48 4.18-.064 4.525-5.21 6.417-5.314 6.345.55.862 6.703 7.418 8.817 9.407 1.984 1.868 2.712 2.087 3.672 2.193v.359c-5.032 1.102-8.545-3.442-9.562-4.505-1.14-1.179-2.9-3.81-4.453-5.496-1.34-1.46-2.661-1.206-3.272-1.255l.005.62c.031 4.25.085 8.611.147 9.152.008.174.083.928.96.928v.485c-2.293-.06-3.423-.068-5.046 0v-.483c.877 0 .952-.755.958-.93.091-1.108.136-4.82.138-8.632.001-1.18-.002-2.385-.01-3.547-.015-3.182-.061-6.09-.128-7.436 0-.102-.027-.957-.958-.957zm-.311 19.156l.326.117c-.612 2.233-.631 3.196-2.63 3.25-.75-.038-3.177-.098-4.478-.145-.701-.189-1.445-.546-2.17-.986l-.235-.146.077.044c.407.214.885.218 1.321.21l.108-.002h.003l.252-.005c2.408-.017 6.381-.003 7.426-2.337zM26.958.397l-.418 2.42s-.12-.014-.445-.068l-.102-.096c.14-1.55-3.484-1.372-5.038-1.451-2.185-.108-2.236 1.232-2.266 1.97-.07.974-.099 5.727-.117 6.435 1.755.329 6.048.36 6.983.233l-.084.362c-1.227.729-4.42 1.113-6.878 1.227-.019.238-.028.896-.03 1.755l.001.6c.001.522.005 1.09.01 1.668l.009.696c.024 1.856.07 3.658.13 4.18.36 1.521 1.417 1.486 2.27 1.469h.004l.25-.005c2.398-.017 6.351-.002 7.393-2.327l.323.117c-.61 2.224-.628 3.182-2.617 3.235-1.41-.07-6.09-.103-7.232-.11-1.774.007-2.983.064-4.39.125v-.458c.886 0 .962-.764.968-.939.104-1.247.146-5.534.14-9.86l-.003-.895c-.012-3.722-.06-7.318-.137-8.866 0-.104-.027-.966-.967-.966v-.45c1.318.042 2.905.06 4.494.063h1.187C23.638.456 26.6.404 26.928.398h.03zM0 .408c4.53.145 10.157.165 13.271 0L13.25.41l-.389 2.418s-.09-.01-.332-.05l-.112-.018-.102-.096c.14-1.55-4.523-1.371-6.077-1.45-2.184-.108-2.235 1.231-2.265 1.969-.07.974-.099 6.367-.116 7.076 1.617.188 6.806.234 8.369-.06l-.052.43c-1.954.932-5 1.362-8.297 1.45-.008.1-.012.28-.014.521v.407c.006 2.248.155 7.507.26 8.428.007.176.083.94.967.94v.456c-2.311-.06-3.45-.07-5.089.002v-.458c.884 0 .96-.764.966-.939.09-1.074.134-4.406.14-8.076V11.58C1.1 7.555 1.05 3.495.966 1.824.966 1.721.94.86 0 .86zm111.89 10.64c-.669-6.4-3.756-10.328-8.815-9.924-4.688.352-7.702 5.268-7.292 11.065.408 5.79 4.158 10.298 8.772 9.931 4.463-.321 7.8-4.367 7.336-11.073zM74.435.397l-.42 2.43s-.12-.014-.446-.068l-.104-.097c.142-1.557-3.5-1.378-5.06-1.458-2.195-.108-2.247 1.238-2.277 1.98-.03.419-.052 1.536-.07 2.731l-.008.601c-.018 1.405-.03 2.777-.04 3.132 2.28.398 5.602.406 7.016.234l-.085.364c-1.231.732-4.439 1.118-6.91 1.232-.017.24-.026.9-.028 1.764v.603c.007 2.408.063 5.82.15 6.573.135.573.369.926.654 1.143l.082.058-.268-.175c-1.337-.893-2.56-2.003-3.277-2.769l-.137-.148c.082-4.97.036-13.987-.1-16.708 0-.104-.027-.97-.97-.97V.397c.992.032 2.138.05 3.321.059l.595.003.598.002c3.69.01 7.384-.056 7.754-.063h.03zm8.469.78l-.298.002c-.513.005-.973.054-1.266.188-.49.223-.775.726-.846 1.625-.048.62-.08 1.566-.1 2.559l-.01.5c-.017 1.085-.023 2.173-.025 2.914v.935c0 .133-.005.244-.008.34v.364c.04.198.223.176.898.236.715.064 1.645-.035 2.515-.12 2.008-.22 4.074-2.217 3.645-5.273-.424-3.021-1.993-4.08-3.311-4.211-.57-.057-.979-.062-1.492-.057zm-46.985 0l-.297.002c-.513.005-.973.054-1.267.188-.49.223-.775.726-.845 1.625-.053.673-.085 1.725-.105 2.808l-.012.75c-.013.995-.018 1.947-.019 2.58v.77c0 .133-.004.244-.007.34v.364c.04.198.222.176.898.236.714.064 1.645-.035 2.515-.12 2.007-.22 4.074-2.217 3.645-5.273-.424-3.021-1.993-4.08-3.312-4.211-.568-.057-.978-.062-1.491-.057zm16.304 0l-.298.002c-.513.005-.973.054-1.267.188-.49.223-.774.726-.845 1.625-.048.62-.08 1.566-.1 2.559l-.01.5c-.017 1.085-.023 2.173-.025 2.914l-.001.453v.482c0 .133-.004.244-.007.34v.364c.04.198.222.176.898.236.715.064 1.645-.035 2.515-.12 2.008-.22 4.074-2.217 3.645-5.273-.424-3.021-1.993-4.08-3.311-4.211-.569-.057-.979-.062-1.492-.057z" transform="translate(0 6615) translate(842 47)"/>
                </g>
            </g>
        </g>
    </g>
</svg>
