<?xml version="1.0" encoding="UTF-8"?>
<svg width="28px" height="28px" viewBox="0 0 28 28" version="1.1" xmlns="http://www.w3.org/2000/svg" xmlns:xlink="http://www.w3.org/1999/xlink">
    <title>icon_pinterest</title>
    <g id="Done" stroke="none" stroke-width="1" fill="none" fill-rule="evenodd">
        <g id="1.1-Homepage_desktop-A" transform="translate(-370.000000, -7937.000000)" fill="#D5AC5B">
            <path d="M383.999863,7937 C376.267941,7937 370,7943.2681 370,7950.99986 C370,7956.93104 373.690032,7962.00138 378.898022,7964.04122 C378.775522,7962.93353 378.664999,7961.23002 378.946639,7960.02071 C379.200935,7958.92817 380.588245,7953.06185 380.588245,7953.06185 C380.588245,7953.06185 380.169394,7952.22327 380.169394,7950.98329 C380.169394,7949.03664 381.297704,7947.58332 382.702678,7947.58332 C383.896996,7947.58332 384.474058,7948.48014 384.474058,7949.55541 C384.474058,7950.75667 383.709309,7952.55244 383.314521,7954.21669 C382.984756,7955.61023 384.013371,7956.74658 385.387665,7956.74658 C387.876106,7956.74658 389.788743,7954.1229 389.788743,7950.33563 C389.788743,7946.98368 387.380036,7944.63999 383.94091,7944.63999 C379.957426,7944.63999 377.619212,7947.62778 377.619212,7950.71549 C377.619212,7951.91883 378.082687,7953.20902 378.661116,7953.91038 C378.775413,7954.04901 378.792256,7954.17058 378.758241,7954.31195 C378.651874,7954.75421 378.415788,7955.70506 378.369359,7955.89963 C378.308273,7956.1559 378.166414,7956.21031 377.90118,7956.08688 C376.152605,7955.27292 375.059459,7952.71666 375.059459,7950.66332 C375.059459,7946.24704 378.268078,7942.19142 384.309722,7942.19142 C389.166291,7942.19142 392.940541,7945.65198 392.940541,7950.27695 C392.940541,7955.10196 389.898336,7958.98493 385.675758,7958.98493 C384.257167,7958.98493 382.923451,7958.24797 382.46703,7957.37745 C382.46703,7957.37745 381.764954,7960.05046 381.594766,7960.70551 C381.278564,7961.92159 380.425441,7963.44584 379.854723,7964.37558 C381.164759,7964.7812 382.556772,7964.99989 383.999863,7964.99989 C391.732059,7964.99989 398,7958.73206 398,7950.99986 C398,7943.2681 391.732059,7937 383.999863,7937 L383.999863,7937 Z" id="icon_pinterest"></path>
        </g>
    </g>
</svg>