<?xml version="1.0" encoding="UTF-8"?>
<svg width="28px" height="28px" viewBox="0 0 28 28" version="1.1" xmlns="http://www.w3.org/2000/svg" xmlns:xlink="http://www.w3.org/1999/xlink">
    <title>icon_insta</title>
    <g id="Done" stroke="none" stroke-width="1" fill="none" fill-rule="evenodd">
        <g id="1.1-Homepage_desktop-A" transform="translate(-300.000000, -7937.000000)" fill="#D5AC5B" fill-rule="nonzero">
            <path d="M313.999271,7965 L314.373212,7965 L314.373212,7965 L315.067865,7964.99891 C316.386198,7964.99599 317.278698,7964.98724 317.745365,7964.97266 C318.328698,7964.95443 318.994062,7964.92708 319.741458,7964.89062 C320.507083,7964.8724 321.158776,7964.80859 321.696536,7964.69922 C322.234297,7964.58984 322.712812,7964.45312 323.132083,7964.28906 C323.587812,7964.10677 324.025312,7963.88346 324.444583,7963.61914 C324.863854,7963.35482 325.264896,7963.03125 325.647708,7962.64844 C326.030521,7962.26562 326.349531,7961.86914 326.60474,7961.45898 C326.859948,7961.04883 327.087812,7960.60677 327.288333,7960.13281 C327.452396,7959.69531 327.584557,7959.21224 327.684818,7958.68359 C327.785078,7958.15495 327.853437,7957.50781 327.889896,7956.74219 C327.908125,7956.01302 327.930911,7955.35221 327.958255,7954.75977 C327.985599,7954.16732 327.999271,7952.91406 327.999271,7951 L327.999271,7950.62606 L327.999271,7950.62606 L327.998177,7949.93141 C327.99526,7948.61307 327.98651,7947.72057 327.971927,7947.25391 C327.953698,7946.67057 327.926354,7946.00521 327.889896,7945.25781 C327.871667,7944.49219 327.807865,7943.84049 327.69849,7943.30273 C327.589115,7942.76497 327.452396,7942.28646 327.288333,7941.86719 C327.106042,7941.41146 326.882734,7940.97396 326.618411,7940.55469 C326.354089,7940.13542 326.030521,7939.73438 325.647708,7939.35156 C325.264896,7938.96875 324.868411,7938.64974 324.458255,7938.39453 C324.048099,7938.13932 323.606042,7937.91146 323.132083,7937.71094 C322.694583,7937.54688 322.21151,7937.41471 321.682865,7937.31445 C321.154219,7937.21419 320.507083,7937.14583 319.741458,7937.10938 C319.012292,7937.09115 318.351484,7937.06836 317.759036,7937.04102 C317.166589,7937.01367 315.913333,7937 313.999271,7937 L313.62533,7937 L313.62533,7937 L312.930677,7937.00109 C311.612344,7937.00401 310.719844,7937.01276 310.253177,7937.02734 C309.669844,7937.04557 309.004479,7937.07292 308.257083,7937.10938 C307.491458,7937.1276 306.839766,7937.19141 306.302005,7937.30078 C305.764245,7937.41016 305.285729,7937.54688 304.866458,7937.71094 C304.410729,7937.89323 303.973229,7938.11654 303.553958,7938.38086 C303.134687,7938.64518 302.733646,7938.96875 302.350833,7939.35156 C301.968021,7939.73438 301.64901,7940.13086 301.393802,7940.54102 C301.138594,7940.95117 300.910729,7941.39323 300.710208,7941.86719 C300.546146,7942.30469 300.413984,7942.78776 300.313724,7943.31641 C300.213464,7943.84505 300.145104,7944.49219 300.108646,7945.25781 C300.090417,7945.98698 300.06763,7946.64779 300.040286,7947.24023 C300.016589,7947.75369 300.00316,7948.76348 300,7950.26962 L300.000365,7952.06859 C300.003281,7953.38693 300.012031,7954.27943 300.026615,7954.74609 C300.044844,7955.32943 300.072187,7955.99479 300.108646,7956.74219 C300.126875,7957.50781 300.190677,7958.15951 300.300052,7958.69727 C300.409427,7959.23503 300.546146,7959.71354 300.710208,7960.13281 C300.8925,7960.58854 301.115807,7961.02604 301.38013,7961.44531 C301.644453,7961.86458 301.968021,7962.26562 302.350833,7962.64844 C302.733646,7963.03125 303.13013,7963.35026 303.540286,7963.60547 C303.950443,7963.86068 304.3925,7964.08854 304.866458,7964.28906 C305.303958,7964.45312 305.787031,7964.58529 306.315677,7964.68555 C306.844323,7964.78581 307.491458,7964.85417 308.257083,7964.89062 C308.98625,7964.90885 309.647057,7964.93164 310.239505,7964.95898 C310.831953,7964.98633 312.085208,7965 313.999271,7965 Z M314.369566,7962.48419 L313.283229,7962.48389 C311.807639,7962.48178 310.824965,7962.47283 310.335208,7962.45703 C309.770104,7962.4388 309.113854,7962.41146 308.366458,7962.375 C307.655521,7962.35677 307.104089,7962.30208 306.712161,7962.21094 C306.320234,7962.11979 305.996667,7962.02865 305.741458,7961.9375 C305.413333,7961.8099 305.121667,7961.65951 304.866458,7961.48633 C304.61125,7961.31315 304.374271,7961.11719 304.155521,7960.89844 C303.918542,7960.66146 303.713464,7960.41536 303.540286,7960.16016 C303.367109,7959.90495 303.225833,7959.6224 303.116458,7959.3125 C303.007083,7959.03906 302.906823,7958.70638 302.815677,7958.31445 C302.724531,7957.92253 302.660729,7957.38021 302.624271,7956.6875 C302.606042,7955.92188 302.583255,7955.25651 302.555911,7954.69141 C302.530391,7954.16398 302.51678,7953.05694 302.515078,7951.3703 L302.515382,7950.28396 C302.517488,7948.80837 302.526441,7947.82569 302.54224,7947.33594 C302.560469,7946.77083 302.587812,7946.11458 302.624271,7945.36719 C302.6425,7944.65625 302.697187,7944.10482 302.788333,7943.71289 C302.879479,7943.32096 302.970625,7942.9974 303.061771,7942.74219 C303.189375,7942.41406 303.339766,7942.1224 303.512943,7941.86719 C303.68612,7941.61198 303.882083,7941.375 304.100833,7941.15625 C304.337812,7940.91927 304.583906,7940.71419 304.839115,7940.54102 C305.094323,7940.36784 305.376875,7940.22656 305.686771,7940.11719 C305.960208,7940.00781 306.292891,7939.90755 306.684818,7939.81641 C307.076745,7939.72526 307.619062,7939.66146 308.311771,7939.625 C309.077396,7939.60677 309.74276,7939.58398 310.307865,7939.55664 C310.835295,7939.53112 311.942332,7939.51751 313.628976,7939.51581 L314.715312,7939.51611 C316.190903,7939.51822 317.173576,7939.52717 317.663333,7939.54297 C318.228437,7939.5612 318.884687,7939.58854 319.632083,7939.625 C320.343021,7939.64323 320.894453,7939.69792 321.28638,7939.78906 C321.678307,7939.88021 322.001875,7939.97135 322.257083,7940.0625 C322.585208,7940.1901 322.876875,7940.34049 323.132083,7940.51367 C323.387292,7940.68685 323.624271,7940.88281 323.843021,7941.10156 C324.08,7941.33854 324.285078,7941.58464 324.458255,7941.83984 C324.631432,7942.09505 324.772708,7942.3776 324.882083,7942.6875 C324.991458,7942.96094 325.091719,7943.29362 325.182865,7943.68555 C325.27401,7944.07747 325.337812,7944.61979 325.374271,7945.3125 C325.3925,7946.07812 325.415286,7946.74349 325.44263,7947.30859 C325.468151,7947.83602 325.481762,7948.94306 325.483464,7950.6297 L325.48316,7951.71604 C325.481053,7953.19163 325.472101,7954.17431 325.456302,7954.66406 C325.438073,7955.22917 325.410729,7955.88542 325.374271,7956.63281 C325.356042,7957.34375 325.301354,7957.89518 325.210208,7958.28711 C325.119062,7958.67904 325.027917,7959.0026 324.936771,7959.25781 C324.809167,7959.58594 324.658776,7959.8776 324.485599,7960.13281 C324.312422,7960.38802 324.116458,7960.625 323.897708,7960.84375 C323.660729,7961.08073 323.414635,7961.28581 323.159427,7961.45898 C322.904219,7961.63216 322.621667,7961.77344 322.311771,7961.88281 C322.038333,7961.99219 321.705651,7962.09245 321.313724,7962.18359 C320.921797,7962.27474 320.379479,7962.33854 319.686771,7962.375 C318.921146,7962.39323 318.255781,7962.41602 317.690677,7962.44336 C317.163247,7962.46888 316.056209,7962.48249 314.369566,7962.48419 Z M321.491458,7945.20312 C321.965417,7945.20312 322.357344,7945.03451 322.66724,7944.69727 C322.977135,7944.36003 323.132083,7943.96354 323.132083,7943.50781 C323.132083,7943.03385 322.972578,7942.64193 322.653568,7942.33203 C322.334557,7942.02214 321.947187,7941.86719 321.491458,7941.86719 C321.0175,7941.86719 320.616458,7942.02669 320.288333,7942.3457 C319.960208,7942.66471 319.796146,7943.05208 319.796146,7943.50781 C319.796146,7943.98177 319.964766,7944.38281 320.302005,7944.71094 C320.639245,7945.03906 321.035729,7945.20312 321.491458,7945.20312 Z M313.999271,7958.21875 C315.001875,7958.21875 315.940677,7958.02734 316.815677,7957.64453 C317.690677,7957.27995 318.456302,7956.76953 319.112552,7956.11328 C319.768802,7955.45703 320.279219,7954.69141 320.643802,7953.81641 C321.026615,7952.94141 321.218021,7952.0026 321.218021,7951 C321.218021,7949.9974 321.026615,7949.05859 320.643802,7948.18359 C320.279219,7947.30859 319.768802,7946.54297 319.112552,7945.88672 C318.456302,7945.23047 317.690677,7944.72005 316.815677,7944.35547 C315.940677,7943.97266 315.001875,7943.78125 313.999271,7943.78125 C312.996667,7943.78125 312.057865,7943.97266 311.182865,7944.35547 C310.307865,7944.72005 309.54224,7945.23047 308.88599,7945.88672 C308.22974,7946.54297 307.719323,7947.30859 307.35474,7948.18359 C306.971927,7949.05859 306.780521,7949.9974 306.780521,7951 C306.780521,7952.0026 306.971927,7952.94141 307.35474,7953.81641 C307.719323,7954.69141 308.22974,7955.45703 308.88599,7956.11328 C309.54224,7956.76953 310.307865,7957.27995 311.182865,7957.64453 C312.057865,7958.02734 312.996667,7958.21875 313.999271,7958.21875 Z M313.999271,7955.70312 C312.723229,7955.70312 311.620365,7955.24284 310.690677,7954.32227 C309.76099,7953.40169 309.296146,7952.29427 309.296146,7951 C309.296146,7949.72396 309.756432,7948.62109 310.677005,7947.69141 C311.597578,7946.76172 312.705,7946.29688 313.999271,7946.29688 C315.275312,7946.29688 316.378177,7946.75716 317.307865,7947.67773 C318.237552,7948.59831 318.702396,7949.70573 318.702396,7951 C318.702396,7952.27604 318.242109,7953.37891 317.321536,7954.30859 C316.400964,7955.23828 315.293542,7955.70312 313.999271,7955.70312 Z" id="icon_insta"></path>
        </g>
    </g>
</svg>