<?xml version="1.0" encoding="UTF-8"?>
<svg width="28px" height="28px" viewBox="0 0 28 28" version="1.1" xmlns="http://www.w3.org/2000/svg" xmlns:xlink="http://www.w3.org/1999/xlink">
    <title>footer_insta_icon</title>
    <g id="Symbols" stroke="none" stroke-width="1" fill="none" fill-rule="evenodd">
        <g id="footer_desktop" transform="translate(-1245.000000, -291.000000)" fill="#D5AC5B" fill-rule="nonzero">
            <g id="Follow-us" transform="translate(1244.000000, 167.000000)">
                <g id="social-bigger" transform="translate(1.000000, 88.000000)">
                    <path d="M14.0001387,64.0009708 L14.4001246,64.0009708 L15.1389895,63.9997152 C16.4188888,63.9966459 17.2880131,63.9879495 17.7463623,63.9736261 C18.3297159,63.9553963 18.9951035,63.9280516 19.7425253,63.891592 C20.5081768,63.8733622 21.1598921,63.8095579 21.6976712,63.7001791 C22.2354502,63.5908003 22.7139824,63.4540769 23.1332678,63.2900087 C23.5890128,63.1077107 24.026528,62.8843956 24.4458133,62.6200636 C24.8650987,62.3557315 25.2661543,62.0321526 25.64898,61.6493268 C26.0318058,61.266501 26.3508273,60.8700029 26.6060445,60.4598324 C26.8612617,60.0496619 27.0891341,59.6075893 27.2896619,59.1336146 C27.4537301,58.6960994 27.5858962,58.2130097 27.68616,57.6843456 C27.7864239,57.1556814 27.8547857,56.5085235 27.8912453,55.742872 C27.9094751,55.0136801 27.9322623,54.3528499 27.959607,53.7603814 C27.9869517,53.1679129 28.0006241,51.9146143 28.0006241,50.0004854 L28.0006241,49.6004994 L27.9993685,48.8616345 C27.9962991,47.5817353 27.9876028,46.712611 27.9732794,46.2542618 C27.9550496,45.6709082 27.9277049,45.0055206 27.8912453,44.2580988 C27.8730155,43.4924473 27.8092112,42.840732 27.6998324,42.3029529 C27.5904536,41.7651738 27.4537301,41.2866416 27.2896619,40.8673563 C27.1073639,40.4116113 26.8840489,39.9740961 26.6197168,39.5548107 C26.3553847,39.1355254 26.0318058,38.7344698 25.64898,38.351644 C25.2661543,37.9688183 24.8696561,37.6497968 24.4594857,37.3945796 C24.0493152,37.1393624 23.6072426,36.9114899 23.1332678,36.7109621 C22.6957527,36.546894 22.212663,36.4147279 21.6839988,36.314464 C21.1553347,36.2142001 20.5081768,36.1458384 19.7425253,36.1093788 C19.0133333,36.091149 18.3525031,36.0683617 17.7600347,36.041017 C17.1675662,36.0136723 15.9142675,36 14.0001387,36 L13.6001527,36 L12.8612878,36.0012556 C11.5813885,36.0043249 10.7122643,36.0130213 10.253915,36.0273447 C9.67056147,36.0455745 9.00517382,36.0729192 8.25775207,36.1093788 C7.49210053,36.1276086 6.84038522,36.1914129 6.30260616,36.3007917 C5.7648271,36.4101705 5.28629488,36.546894 4.86700951,36.7109621 C4.41126455,36.8932601 3.97374938,37.1165752 3.55446401,37.3809073 C3.13517864,37.6452393 2.73412306,37.9688183 2.35129729,38.351644 C1.96847152,38.7344698 1.64945004,39.1309679 1.39423286,39.5411384 C1.13901568,39.9513089 0.911143193,40.3933815 0.710615407,40.8673563 C0.546547219,41.3048714 0.414381178,41.7879611 0.314117285,42.3166253 C0.213853393,42.8452894 0.145491647,43.4924473 0.10903205,44.2580988 C0.0908022513,44.9872908 0.0680150029,45.648121 0.0406703049,46.2405894 C0.0175324834,46.7419089 0.00418374028,47.7163671 0.000624075445,49.1639642 L0.000908881653,51.1393363 C0.0039781845,52.4192356 0.0126745426,53.2883598 0.0269979558,53.746709 C0.0452277545,54.3300626 0.0725724526,54.9954503 0.10903205,55.742872 C0.127261849,56.5085235 0.191066144,57.1602389 0.300444936,57.6980179 C0.409823729,58.235797 0.546547219,58.7143292 0.710615407,59.1336146 C0.892913395,59.5893595 1.11622843,60.0268747 1.38056051,60.4461601 C1.64489259,60.8654454 1.96847152,61.266501 2.35129729,61.6493268 C2.73412306,62.0321526 3.13062119,62.351174 3.54079166,62.6063912 C3.95096213,62.8616084 4.39303475,63.0894809 4.86700951,63.2900087 C5.30452468,63.4540769 5.78761435,63.5862429 6.31627851,63.6865068 C6.84494267,63.7867707 7.49210053,63.8551324 8.25775207,63.891592 C8.98694402,63.9098218 9.64777422,63.9326091 10.2402427,63.9599538 C10.8327111,63.9872985 12.0860098,64.0009708 14.0001387,64.0009708 Z M14.7719288,61.4846114 L13.1801213,61.4846114 C11.7621882,61.4822383 10.8141308,61.4733391 10.3359491,61.4579139 C9.77082537,61.4396841 9.11455261,61.4123394 8.36713087,61.3758798 C7.65616872,61.35765 7.1047173,61.3029606 6.71277663,61.2118116 C6.32083596,61.1206626 5.99725703,61.0295136 5.74203985,60.9383646 C5.41390347,60.810756 5.1222267,60.6603602 4.86700951,60.4871771 C4.61179233,60.313994 4.37480495,60.1180237 4.15604736,59.8992661 C3.91905998,59.6622787 3.71397474,59.4161764 3.54079166,59.1609593 C3.36760857,58.9057421 3.22632763,58.6231802 3.11694884,58.3132736 C3.00757004,58.0398266 2.90730615,57.7071328 2.81615716,57.3151921 C2.72500816,56.9232515 2.66120387,56.380915 2.62474427,55.6881826 C2.60651447,54.9225311 2.58372722,54.2571434 2.55638253,53.6920196 C2.53294421,53.2076279 2.51955089,52.2343798 2.51601269,50.7722756 L2.51601269,49.1804681 C2.5183858,47.7625349 2.52728496,46.8144775 2.54271018,46.3362959 C2.56093998,45.7711721 2.58828467,45.1148994 2.62474427,44.3674776 C2.64297407,43.6565155 2.69766347,43.105064 2.78881246,42.7131234 C2.87996145,42.3211827 2.97111045,41.9976038 3.06225944,41.7423866 C3.18986803,41.4142502 3.34026387,41.1225734 3.51344696,40.8673563 C3.68663005,40.6121391 3.88260038,40.3751517 4.10135797,40.1563941 C4.33834535,39.9194067 4.58444763,39.7143215 4.83966482,39.5411384 C5.094882,39.3679553 5.37744388,39.2266744 5.68735046,39.1172956 C5.96079744,39.0079168 6.29349126,38.9076529 6.68543193,38.8165039 C7.07737261,38.7253549 7.61970912,38.6615506 8.31244147,38.625091 C9.07809302,38.6068612 9.74348067,38.584074 10.3086044,38.5567293 C10.7929962,38.533291 11.7662443,38.5198976 13.2283485,38.5163594 L14.820156,38.5163594 C16.2380892,38.5187325 17.1861466,38.5276317 17.6643282,38.5430569 C18.229452,38.5612867 18.8857247,38.5886314 19.6331465,38.625091 C20.3441086,38.6433208 20.89556,38.6980102 21.2875007,38.7891592 C21.6794414,38.8803082 22.0030203,38.9714572 22.2582375,39.0626062 C22.5863739,39.1902148 22.8780506,39.3406106 23.1332678,39.5137937 C23.388485,39.6869768 23.6254724,39.8829471 23.84423,40.1017047 C24.0812174,40.3386921 24.2863026,40.5847944 24.4594857,40.8400116 C24.6326688,41.0952287 24.7739497,41.3777906 24.8833285,41.6876972 C24.9927073,41.9611442 25.0929712,42.293838 25.1841202,42.6857787 C25.2752692,43.0777193 25.3390735,43.6200559 25.3755331,44.3127882 C25.3937629,45.0784398 25.4165501,45.7438274 25.4438948,46.3089512 C25.4673331,46.793343 25.4807264,47.766591 25.4842646,49.2286953 L25.4842646,50.8205027 C25.4818915,52.2384359 25.4729924,53.1864933 25.4575672,53.6646749 C25.4393374,54.2297987 25.4119927,54.8860715 25.3755331,55.6334932 C25.3573033,56.3444554 25.3026139,56.8959068 25.2114649,57.2878474 C25.1203159,57.6797881 25.0291669,58.003367 24.9380179,58.2585842 C24.8104093,58.5867206 24.6600135,58.8783974 24.4868304,59.1336146 C24.3136473,59.3888317 24.117677,59.6258191 23.8989194,59.8445767 C23.661932,60.0815641 23.4158297,60.2866493 23.1606125,60.4598324 C22.9053953,60.6330155 22.6228335,60.7742964 22.3129269,60.8836752 C22.0394799,60.993054 21.7067861,61.0933179 21.3148454,61.1844669 C20.9229047,61.2756159 20.3805682,61.3394202 19.6878359,61.3758798 C18.9221843,61.3941096 18.2567967,61.4168969 17.6916729,61.4442415 C17.2072811,61.4676799 16.2340331,61.4810732 14.7719288,61.4846114 Z M21.4925859,44.2034094 C21.9665607,44.2034094 22.3585014,44.0347838 22.668408,43.6975325 C22.9783145,43.3602812 23.1332678,42.9637831 23.1332678,42.5080381 C23.1332678,42.0340634 22.9737571,41.6421227 22.6547356,41.3322161 C22.3357141,41.0223095 21.9483309,40.8673563 21.4925859,40.8673563 C21.0186112,40.8673563 20.6175556,41.026867 20.2894192,41.3458885 C19.9612828,41.6649099 19.7972147,42.0522932 19.7972147,42.5080381 C19.7972147,42.9820129 19.9658403,43.3830685 20.3030916,43.7112049 C20.6403428,44.0393412 21.036841,44.2034094 21.4925859,44.2034094 Z M14.0001387,57.2194857 C15.0027776,57.2194857 15.9416122,57.0280728 16.8166426,56.645247 C17.6916729,56.2806511 18.4573245,55.7702167 19.1135972,55.1139439 C19.76987,54.4576712 20.2803043,53.6920196 20.6449003,52.8169893 C21.0277261,51.941959 21.219139,51.0031243 21.219139,50.0004854 C21.219139,48.9978465 21.0277261,48.0590118 20.6449003,47.1839815 C20.2803043,46.3089512 19.76987,45.5432996 19.1135972,44.8870269 C18.4573245,44.2307541 17.6916729,43.7203198 16.8166426,43.3557238 C15.9416122,42.972898 15.0027776,42.7814851 14.0001387,42.7814851 C12.9974997,42.7814851 12.0586651,42.972898 11.1836348,43.3557238 C10.3086044,43.7203198 9.54295288,44.2307541 8.88668013,44.8870269 C8.23040738,45.5432996 7.71997301,46.3089512 7.35537704,47.1839815 C6.97255126,48.0590118 6.78113838,48.9978465 6.78113838,50.0004854 C6.78113838,51.0031243 6.97255126,51.941959 7.35537704,52.8169893 C7.71997301,53.6920196 8.23040738,54.4576712 8.88668013,55.1139439 C9.54295288,55.7702167 10.3086044,56.2806511 11.1836348,56.645247 C12.0586651,57.0280728 12.9974997,57.2194857 14.0001387,57.2194857 Z M14.0001387,54.7037735 C12.7240528,54.7037735 11.6211499,54.2434711 10.6914302,53.3228662 C9.76171047,52.4022614 9.2968506,51.2948011 9.2968506,50.0004854 C9.2968506,48.7243995 9.75715302,47.6214967 10.6777579,46.6917769 C11.5983627,45.7620572 12.705823,45.2971973 14.0001387,45.2971973 C15.2762246,45.2971973 16.3791274,45.7574998 17.3088471,46.6781046 C18.2385669,47.5987094 18.7034267,48.7061697 18.7034267,50.0004854 C18.7034267,51.2765713 18.2431243,52.3794741 17.3225195,53.3091939 C16.4019146,54.2389136 15.2944544,54.7037735 14.0001387,54.7037735 Z" id="footer_insta_icon"></path>
                </g>
            </g>
        </g>
    </g>
</svg>