<?xml version="1.0" encoding="UTF-8"?>
<svg width="40px" height="28px" viewBox="0 0 40 28" version="1.1" xmlns="http://www.w3.org/2000/svg" xmlns:xlink="http://www.w3.org/1999/xlink">
    <title>footer_yt_icon</title>
    <g id="Symbols" stroke="none" stroke-width="1" fill="none" fill-rule="evenodd">
        <g id="footer_desktop" transform="translate(-1245.000000, -329.000000)" fill="#D5AC5B" fill-rule="nonzero">
            <g id="Follow-us" transform="translate(1244.000000, 167.000000)">
                <g id="social-bigger" transform="translate(1.000000, 88.000000)">
                    <path d="M24.921875,101.961111 C26.328125,101.935185 27.8385417,101.896296 29.453125,101.844444 C31.09375,101.792593 32.6041667,101.714815 33.984375,101.611111 C34.375,101.585185 34.9544271,101.487963 35.7226562,101.319444 C36.4908854,101.150926 37.265625,100.677778 38.046875,99.9 C38.6197917,99.2777778 39.0234375,98.4611111 39.2578125,97.45 C39.4921875,96.4388889 39.609375,95.9333333 39.609375,95.9333333 C39.609375,95.9333333 39.6744792,95.2657407 39.8046875,93.9305556 C39.9348958,92.5953704 40,91.1111111 40,89.4777778 L40,86.4444444 C40,84.862963 39.9348958,83.4046296 39.8046875,82.0694444 C39.6744792,80.7342593 39.609375,80.0666667 39.609375,80.0666667 C39.609375,80.0666667 39.4986979,79.5546296 39.2773437,78.5305556 C39.0559896,77.5064815 38.6458333,76.6962963 38.046875,76.1 C37.265625,75.2962963 36.4908854,74.8231481 35.7226562,74.6805556 C34.9544271,74.537963 34.375,74.4407407 33.984375,74.3888889 C32.6041667,74.2851852 31.09375,74.2074074 29.453125,74.1555556 C27.8385417,74.1037037 26.328125,74.0648148 24.921875,74.0388889 C23.6914062,74.0162037 22.6403809,74.0034433 21.7687988,74.0006076 L18.59375,74 C17.65625,74 16.484375,74.012963 15.078125,74.0388889 C13.671875,74.0648148 12.1614583,74.1037037 10.546875,74.1555556 C8.90625,74.2074074 7.39583333,74.2851852 6.015625,74.3888889 C5.625,74.4148148 5.04557292,74.4990741 4.27734375,74.6416667 C3.50911458,74.7842593 2.734375,75.2703704 1.953125,76.1 C1.38020833,76.6703704 0.9765625,77.4740741 0.7421875,78.5111111 C0.5078125,79.5481481 0.390625,80.0666667 0.390625,80.0666667 C0.390625,80.0666667 0.325520833,80.7277778 0.1953125,82.05 C0.0651041667,83.3722222 -4.47641924e-13,84.837037 -4.47641924e-13,86.4444444 L-4.47641924e-13,89.4777778 C-4.47641924e-13,91.1111111 0.0651041667,92.5953704 0.1953125,93.9305556 C0.325520833,95.2657407 0.390625,95.9333333 0.390625,95.9333333 C0.390625,95.9333333 0.501302083,96.4388889 0.72265625,97.45 C0.944010417,98.4611111 1.35416667,99.2777778 1.953125,99.9 C2.734375,100.677778 3.56119792,101.137963 4.43359375,101.280556 C5.30598958,101.423148 5.96354167,101.533333 6.40625,101.611111 C7.21354167,101.688889 8.37239583,101.753704 9.8828125,101.805556 C11.3932292,101.857407 12.8971354,101.896296 14.3945312,101.922222 C15.8919271,101.948148 17.2005208,101.974074 18.3203125,102 L21.40625,102 C22.34375,102 23.515625,101.987037 24.921875,101.961111 Z M15.9375,93.2111111 L15.9375,82.0111111 L26.71875,87.6111111 L25.390625,88.3111111 L15.9375,93.2111111 Z" id="footer_yt_icon"></path>
                </g>
            </g>
        </g>
    </g>
</svg>